<?xml version="1.0" encoding="utf-8"?>
<!-- Generator: Adobe Illustrator 24.0.1, SVG Export Plug-In . SVG Version: 6.00 Build 0)  -->
<svg version="1.1" xmlns="http://www.w3.org/2000/svg" xmlns:xlink="http://www.w3.org/1999/xlink" x="0px" y="0px"
	 viewBox="0 0 49.1 81.6" style="enable-background:new 0 0 49.1 81.6;" xml:space="preserve">
<style type="text/css">
	.st0{fill:#FF9933;stroke:#FF9933;stroke-width:5;stroke-linecap:round;stroke-linejoin:round;stroke-miterlimit:3;}
	.st1{fill:#FF9933;stroke:#FF9933;stroke-width:6;stroke-miterlimit:10;}
	.st2{fill:#206095;}
	.st3{fill:#FF9933;stroke:#FF9933;stroke-width:5;stroke-miterlimit:10;}
	.st4{fill:#014462;}
	.st5{fill:#D0D2D3;}
	.st6{fill:#C6A55A;}
	.st7{fill:#D5B568;}
	.st8{fill:#FFFFFF;}
	.st9{opacity:0.5;fill:#C6A55A;}
	.st10{fill:#BDBFC1;}
	.st11{opacity:0.3;fill:#B4B4B4;}
	.st12{fill:#9A7A48;}
	.st13{fill:#A88251;}
	.st14{opacity:0.5;fill:#FFFFFF;}
	.st15{fill:#5F7682;}
	.st16{fill:#E2BC22;}
	.st17{fill:#FF9933;}
	.st18{opacity:0.5;fill:#E2BC22;}
	.st19{opacity:0.8;fill:#FF9933;}
	.st20{fill:#FFFBDC;}
	.st21{fill:#FF9933;stroke:#206095;stroke-width:1.0154;stroke-miterlimit:10;}
	.st22{fill:#EAEAEA;stroke:#206095;stroke-width:1.2241;stroke-miterlimit:10;}
	.st23{opacity:0.8;fill:#FFFFFF;}
	.st24{fill:none;stroke:#206095;stroke-width:1.5564;stroke-miterlimit:10;}
	.st25{fill:none;stroke:#206095;stroke-width:1.2641;stroke-miterlimit:10;}
	.st26{fill:#206095;stroke:#206095;stroke-width:1.5564;stroke-miterlimit:10;}
	.st27{fill:none;stroke:#FFFFFF;stroke-width:0.3018;stroke-miterlimit:10;}
	
		.st28{fill:none;stroke:#FF9933;stroke-width:1.5564;stroke-linecap:round;stroke-linejoin:round;stroke-dasharray:4.8647,4.8647,4.8647,4.8647,4.8647,4.8647;}
	.st29{fill:#FF9933;stroke:#206095;stroke-width:1.0596;stroke-miterlimit:10;}
	.st30{fill:#FFFFFF;stroke:#206095;stroke-miterlimit:10;}
	.st31{fill:#5F7682;stroke:#5F7682;stroke-miterlimit:10;}
	.st32{fill:#FFFFFF;stroke:#FFFFFF;stroke-miterlimit:10;}
	.st33{fill:none;stroke:#5F7682;stroke-width:1.533;stroke-miterlimit:10;}
	.st34{fill:none;stroke:#5F7682;stroke-width:1.2451;stroke-miterlimit:10;}
	.st35{fill:#5F7682;stroke:#5F7682;stroke-width:1.533;stroke-miterlimit:10;}
	.st36{fill:none;stroke:#FFFFFF;stroke-width:0.2972;stroke-miterlimit:10;}
	
		.st37{fill:none;stroke:#5F7682;stroke-width:1.533;stroke-linecap:round;stroke-linejoin:round;stroke-dasharray:4.8116,4.8116,4.8116,4.8116,4.8116,4.8116;}
	.st38{fill:#5F7682;stroke:#5F7682;stroke-width:1.0596;stroke-miterlimit:10;}
	.st39{fill:#EAEAEA;stroke:#206095;stroke-width:1.4584;stroke-miterlimit:10;}
	.st40{fill:#D0D2D3;stroke:#EAEAEA;stroke-miterlimit:10;}
	.st41{opacity:0.4;fill:#FFFFFF;stroke:#206095;stroke-miterlimit:10;}
	.st42{fill:none;stroke:#D0D2D3;stroke-miterlimit:10;}
	.st43{fill:#D0D2D3;stroke:#D0D2D3;stroke-miterlimit:10;}
	.st44{fill:none;stroke:#206095;stroke-width:1.4584;stroke-miterlimit:10;}
	.st45{fill:none;stroke:#D0D2D3;stroke-width:0.5;stroke-miterlimit:10;}
	.st46{fill:#008080;}
	.st47{fill:#206095;stroke:#206095;stroke-width:1.0154;stroke-miterlimit:10;}
	.st48{fill:#FFFFFF;stroke:#FFFFFF;stroke-width:1.0154;stroke-miterlimit:10;}
	.st49{opacity:0.8;fill:#5F7682;}
</style>
<g id="Layer_1">
</g>
<g id="Layer_2">
	<g>
		<path class="st18" d="M47.2,34.3c0,13.7-22.9,43.9-22.9,43.9S1.5,48,1.5,34.3S10.6,9.4,24.4,9.4S47.2,20.5,47.2,34.3z"/>
		<g>
			<path class="st19" d="M24.7,29.1c-5.4,0-10.1,4.2-10.1,9.8c0,0.2,0,0.3,0,0.5c0,0.7,0.6,1.2,1.2,1.2h8.8h0h8.8
				c0.7,0,1.2-0.5,1.2-1.2c0-0.2,0-0.3,0-0.5C34.8,33.3,30.2,29.1,24.7,29.1z"/>
			<path class="st17" d="M17.5,37.7c-0.3,0-0.6,0.3-0.6,0.6c0,0,0,0,0,0c0,0.3,0.3,0.5,0.6,0.5s0.6-0.2,0.6-0.5c0,0,0,0,0,0
				C18.1,38,17.8,37.7,17.5,37.7z"/>
		</g>
		<g>
			<rect x="15.2" y="40.2" class="st20" width="9.6" height="0.4"/>
			<rect x="24.7" y="40.2" class="st20" width="9.6" height="0.4"/>
			<path class="st20" d="M24.7,40.6h-9.6v1c0,0.2,0,0.3,0.1,0.4l4.2,9.5c0,0.1,0.1,0.2,0.1,0.3l0.1,1c0,0.3,0.3,0.6,0.7,0.6l4.4,0
				l4.4,0c0.3,0,0.6-0.3,0.7-0.6l0.1-1c0-0.1,0-0.2,0.1-0.3l4.3-9.5c0.1-0.1,0.1-0.3,0.1-0.4v-1H24.7z"/>
		</g>
		<path class="st2" d="M49.1,23.2l-0.2-0.9c-1.7-7.6-7.7-9.3-8-9.4l-3.1,0c-3.1-3.3-6.3-4.7-7-5h-0.3c0.1-0.3,0.1-0.7,0.1-1
			c0-3.8-3.1-6.9-6.9-6.9s-6.9,3.1-6.9,6.9c0,0.4,0,0.8,0.1,1.2c-2.9,1.1-5.1,3.2-6.5,4.8l-1.8,0c-6.2,0-8.3,9-8.4,9.4L0,23.2h2.1
			l6.3,28.9C3.8,57.2,6,64.2,6.1,64.5L6.3,65h2.8c-0.2,2.2-0.1,7.8,6.1,10c2.1,0.6,7.7,2.8,8.5,5.5c0,0.1,0.1,0.2,0.1,0.3
			c0,0,0,0.1,0,0.1l0.7-0.1L23.8,81c0.1,0.3,0.4,0.6,0.7,0.6c0,0,0,0,0,0c0.4,0,0.7-0.3,0.7-0.6l0-0.1c0-0.1,0-0.2,0.1-0.3
			c0.9-2.7,6.5-4.9,8.6-5.5c6.1-2.2,6.2-7.8,6-10h2.3l0.2-0.4c3-5.7-0.4-10.3-2.2-12.1l6.4-29.3H49.1z M33,23.2l-1.1,28.3H17
			l-1.1-28.3H33z M3.7,23.2h10.7l1.1,28.3H9.9L3.7,23.2z M39,51.6h-5.6l1.1-28.3h10.7L39,51.6z"/>
	</g>
</g>
</svg>
