<?xml version="1.0" encoding="utf-8"?>
<!-- Generator: Adobe Illustrator 24.0.1, SVG Export Plug-In . SVG Version: 6.00 Build 0)  -->
<svg version="1.1" xmlns="http://www.w3.org/2000/svg" xmlns:xlink="http://www.w3.org/1999/xlink" x="0px" y="0px"
	 viewBox="0 0 52.2 27.4" style="enable-background:new 0 0 52.2 27.4;" xml:space="preserve">
<style type="text/css">
	.st0{fill:#FF9933;stroke:#FF9933;stroke-width:5;stroke-linecap:round;stroke-linejoin:round;stroke-miterlimit:3;}
	.st1{fill:#FF9933;stroke:#FF9933;stroke-width:6;stroke-miterlimit:10;}
	.st2{fill:#206095;}
	.st3{fill:#FF9933;stroke:#FF9933;stroke-width:5;stroke-miterlimit:10;}
	.st4{fill:#014462;}
	.st5{fill:#D0D2D3;}
	.st6{fill:#C6A55A;}
	.st7{fill:#D5B568;}
	.st8{fill:#FFFFFF;}
	.st9{opacity:0.5;fill:#C6A55A;}
	.st10{fill:#BDBFC1;}
	.st11{opacity:0.3;fill:#B4B4B4;}
	.st12{fill:#9A7A48;}
	.st13{fill:#A88251;}
	.st14{opacity:0.5;fill:#FFFFFF;}
	.st15{fill:#5F7682;}
	.st16{fill:#E2BC22;}
	.st17{fill:#FF9933;}
	.st18{opacity:0.5;fill:#E2BC22;}
	.st19{opacity:0.8;fill:#FF9933;}
	.st20{fill:#FFFBDC;}
	.st21{fill:#FF9933;stroke:#206095;stroke-width:1.0154;stroke-miterlimit:10;}
	.st22{fill:#EAEAEA;stroke:#206095;stroke-width:1.2241;stroke-miterlimit:10;}
	.st23{opacity:0.8;fill:#FFFFFF;}
	.st24{fill:none;stroke:#206095;stroke-width:1.5564;stroke-miterlimit:10;}
	.st25{fill:none;stroke:#206095;stroke-width:1.2641;stroke-miterlimit:10;}
	.st26{fill:#206095;stroke:#206095;stroke-width:1.5564;stroke-miterlimit:10;}
	.st27{fill:none;stroke:#FFFFFF;stroke-width:0.3018;stroke-miterlimit:10;}
	
		.st28{fill:none;stroke:#FF9933;stroke-width:1.5564;stroke-linecap:round;stroke-linejoin:round;stroke-dasharray:4.8647,4.8647,4.8647,4.8647,4.8647,4.8647;}
	.st29{fill:#FF9933;stroke:#206095;stroke-width:1.0596;stroke-miterlimit:10;}
	.st30{fill:#FFFFFF;stroke:#206095;stroke-miterlimit:10;}
	.st31{fill:#5F7682;stroke:#5F7682;stroke-miterlimit:10;}
	.st32{fill:#FFFFFF;stroke:#FFFFFF;stroke-miterlimit:10;}
	.st33{fill:none;stroke:#5F7682;stroke-width:1.533;stroke-miterlimit:10;}
	.st34{fill:none;stroke:#5F7682;stroke-width:1.2451;stroke-miterlimit:10;}
	.st35{fill:#5F7682;stroke:#5F7682;stroke-width:1.533;stroke-miterlimit:10;}
	.st36{fill:none;stroke:#FFFFFF;stroke-width:0.2972;stroke-miterlimit:10;}
	
		.st37{fill:none;stroke:#5F7682;stroke-width:1.533;stroke-linecap:round;stroke-linejoin:round;stroke-dasharray:4.8116,4.8116,4.8116,4.8116,4.8116,4.8116;}
	.st38{fill:#5F7682;stroke:#5F7682;stroke-width:1.0596;stroke-miterlimit:10;}
	.st39{fill:#EAEAEA;stroke:#206095;stroke-width:1.4584;stroke-miterlimit:10;}
	.st40{fill:#D0D2D3;stroke:#EAEAEA;stroke-miterlimit:10;}
	.st41{opacity:0.4;fill:#FFFFFF;stroke:#206095;stroke-miterlimit:10;}
	.st42{fill:none;stroke:#D0D2D3;stroke-miterlimit:10;}
	.st43{fill:#D0D2D3;stroke:#D0D2D3;stroke-miterlimit:10;}
	.st44{fill:none;stroke:#206095;stroke-width:1.4584;stroke-miterlimit:10;}
	.st45{fill:none;stroke:#D0D2D3;stroke-width:0.5;stroke-miterlimit:10;}
	.st46{fill:#008080;}
	.st47{fill:#206095;stroke:#206095;stroke-width:1.0154;stroke-miterlimit:10;}
	.st48{fill:#FFFFFF;stroke:#FFFFFF;stroke-width:1.0154;stroke-miterlimit:10;}
	.st49{opacity:0.8;fill:#5F7682;}
</style>
<g id="Layer_1">
</g>
<g id="Layer_2">
	<g>
		<path class="st23" d="M46.4,26.6H5.8c-2.8,0-5-2.2-5-5V5.8c0-2.8,2.2-5,5-5h40.6c2.8,0,5,2.2,5,5v15.9
			C51.4,24.4,49.2,26.6,46.4,26.6z"/>
		<g>
			<path class="st15" d="M30.3,12.5H8.5c-1.7,0-3-1.3-3-2.9s1.4-2.9,3-2.9h21.8V12.5z M28.7,8.1H6.9"/>
		</g>
		<g>
			<path class="st33" d="M29.1,17.3l-1.1,1.8c-0.5,0.9-1.7,1.2-2.6,0.7l-4.6-2.6c-0.9-0.5-1.2-1.7-0.7-2.6l1.1-1.8
				c0.5-0.9,1.7-1.2,2.6-0.7l4.6,2.6C29.4,15.2,29.7,16.4,29.1,17.3z"/>
			<path class="st33" d="M34.4,18.7v2c0,1.1-0.9,1.9-1.9,1.9l-5.3,0c-1.1,0-1.9-0.9-1.9-1.9v-2c0-1.1,0.9-1.9,1.9-1.9l5.3,0
				C33.6,16.7,34.4,17.6,34.4,18.7z"/>
		</g>
		<path class="st33" d="M22.9,14.7h-2.2c-1.1,0-1.9-0.9-1.9-1.9v-5c0-1.1,0.9-1.9,1.9-1.9h2.2c1.1,0,1.9,0.9,1.9,1.9v5
			C24.8,13.9,24,14.7,22.9,14.7z"/>
		<g>
			<g>
				<path class="st33" d="M37.5,15.8l1.1,1.8c0.5,0.9,1.7,1.2,2.6,0.7l4.6-2.6c0.9-0.5,1.2-1.7,0.7-2.6l-1.1-1.8
					c-0.5-0.9-1.7-1.2-2.6-0.7l-4.6,2.6C37.3,13.7,37,14.9,37.5,15.8z"/>
				<path class="st33" d="M32.2,17.2v2c0,1.1,0.9,1.9,1.9,1.9l5.3,0c1.1,0,1.9-0.9,1.9-1.9v-2c0-1.1-0.9-1.9-1.9-1.9l-5.3,0
					C33.1,15.2,32.2,16.1,32.2,17.2z"/>
			</g>
			<path class="st34" d="M44.6,12.2l-2.2,0c-1.1,0-1.9-0.9-1.9-1.9v-2c0-1.1,0.9-1.9,1.9-1.9h2.2c1.1,0,1.9,0.9,1.9,1.9l0,2
				C46.6,11.3,45.7,12.2,44.6,12.2z"/>
		</g>
		<path class="st8" d="M8.5,8.1C7.6,8.1,7,8.8,7,9.5S7.6,11,8.5,11h20.3V8.1H8.5z"/>
		<path class="st33" d="M21.8,5.9L21.8,5.9c1.7,0,3,1.3,3,2.9v3c0,1.6-1.4,2.9-3,2.9h0"/>
		<path class="st35" d="M44.6,12.2l-2.2,0c-1.1,0-1.9-0.9-1.9-1.9v-2c0-1.1,0.9-1.9,1.9-1.9h2.2c1.1,0,1.9,0.9,1.9,1.9l0,2
			C46.6,11.3,45.7,12.2,44.6,12.2z"/>
		<g>
			<line class="st36" x1="41.9" y1="10.9" x2="45.1" y2="7.6"/>
			<line class="st36" x1="45.2" y1="10.8" x2="41.9" y2="7.6"/>
		</g>
		<g>
			<path class="st37" d="M46.4,26.6H5.8c-2.8,0-5-2.2-5-5V5.8c0-2.8,2.2-5,5-5h40.6c2.8,0,5,2.2,5,5v15.9
				C51.4,24.4,49.2,26.6,46.4,26.6z"/>
		</g>
	</g>
</g>
</svg>
