<?xml version="1.0" encoding="utf-8"?>
<!-- Generator: Adobe Illustrator 24.0.1, SVG Export Plug-In . SVG Version: 6.00 Build 0)  -->
<svg version="1.1" xmlns="http://www.w3.org/2000/svg" xmlns:xlink="http://www.w3.org/1999/xlink" x="0px" y="0px"
	 viewBox="0 0 96 50.5" style="enable-background:new 0 0 96 50.5;" xml:space="preserve">
<style type="text/css">
	.st0{fill:#FF9933;stroke:#FF9933;stroke-width:5;stroke-linecap:round;stroke-linejoin:round;stroke-miterlimit:3;}
	.st1{fill:#FF9933;stroke:#FF9933;stroke-width:6;stroke-miterlimit:10;}
	.st2{fill:#206095;}
	.st3{fill:#FF9933;stroke:#FF9933;stroke-width:5;stroke-miterlimit:10;}
	.st4{fill:#014462;}
	.st5{fill:#D0D2D3;}
	.st6{fill:#C6A55A;}
	.st7{fill:#D5B568;}
	.st8{fill:#FFFFFF;}
	.st9{opacity:0.5;fill:#C6A55A;}
	.st10{fill:#BDBFC1;}
	.st11{opacity:0.3;fill:#B4B4B4;}
	.st12{fill:#9A7A48;}
	.st13{fill:#A88251;}
	.st14{opacity:0.5;fill:#FFFFFF;}
	.st15{fill:#5F7682;}
	.st16{fill:#E2BC22;}
	.st17{fill:#FF9933;}
	.st18{opacity:0.5;fill:#E2BC22;}
	.st19{opacity:0.8;fill:#FF9933;}
	.st20{fill:#FFFBDC;}
	.st21{fill:#FF9933;stroke:#206095;stroke-width:1.0154;stroke-miterlimit:10;}
	.st22{fill:#EAEAEA;stroke:#206095;stroke-width:1.2241;stroke-miterlimit:10;}
	.st23{opacity:0.8;fill:#FFFFFF;}
	.st24{fill:none;stroke:#206095;stroke-width:1.5564;stroke-miterlimit:10;}
	.st25{fill:none;stroke:#206095;stroke-width:1.2641;stroke-miterlimit:10;}
	.st26{fill:#206095;stroke:#206095;stroke-width:1.5564;stroke-miterlimit:10;}
	.st27{fill:none;stroke:#FFFFFF;stroke-width:0.3018;stroke-miterlimit:10;}
	
		.st28{fill:none;stroke:#FF9933;stroke-width:1.5564;stroke-linecap:round;stroke-linejoin:round;stroke-dasharray:4.8647,4.8647,4.8647,4.8647,4.8647,4.8647;}
	.st29{fill:#FF9933;stroke:#206095;stroke-width:1.0596;stroke-miterlimit:10;}
	.st30{fill:#FFFFFF;stroke:#206095;stroke-miterlimit:10;}
	.st31{fill:#5F7682;stroke:#5F7682;stroke-miterlimit:10;}
	.st32{fill:#FFFFFF;stroke:#FFFFFF;stroke-miterlimit:10;}
	.st33{fill:none;stroke:#5F7682;stroke-width:1.533;stroke-miterlimit:10;}
	.st34{fill:none;stroke:#5F7682;stroke-width:1.2451;stroke-miterlimit:10;}
	.st35{fill:#5F7682;stroke:#5F7682;stroke-width:1.533;stroke-miterlimit:10;}
	.st36{fill:none;stroke:#FFFFFF;stroke-width:0.2972;stroke-miterlimit:10;}
	
		.st37{fill:none;stroke:#5F7682;stroke-width:1.533;stroke-linecap:round;stroke-linejoin:round;stroke-dasharray:4.8116,4.8116,4.8116,4.8116,4.8116,4.8116;}
	.st38{fill:#5F7682;stroke:#5F7682;stroke-width:1.0596;stroke-miterlimit:10;}
	.st39{fill:#EAEAEA;stroke:#206095;stroke-width:1.4584;stroke-miterlimit:10;}
	.st40{fill:#D0D2D3;stroke:#EAEAEA;stroke-miterlimit:10;}
	.st41{opacity:0.4;fill:#FFFFFF;stroke:#206095;stroke-miterlimit:10;}
	.st42{fill:none;stroke:#D0D2D3;stroke-miterlimit:10;}
	.st43{fill:#D0D2D3;stroke:#D0D2D3;stroke-miterlimit:10;}
	.st44{fill:none;stroke:#206095;stroke-width:1.4584;stroke-miterlimit:10;}
	.st45{fill:none;stroke:#D0D2D3;stroke-width:0.5;stroke-miterlimit:10;}
	.st46{fill:#008080;}
	.st47{fill:#206095;stroke:#206095;stroke-width:1.0154;stroke-miterlimit:10;}
	.st48{fill:#FFFFFF;stroke:#FFFFFF;stroke-width:1.0154;stroke-miterlimit:10;}
	.st49{opacity:0.8;fill:#5F7682;}
</style>
<g id="Layer_1">
</g>
<g id="Layer_2">
	<path class="st0" d="M68.3,38.6H27.7c-2.8,0-5-2.2-5-5V16.9c0-2.8,2.2-5,5-5h40.6c2.8,0,5,2.2,5,5v16.7
		C73.3,36.4,71.1,38.6,68.3,38.6z"/>
	<path class="st23" d="M68.3,38.6H27.7c-2.8,0-5-2.2-5-5V16.9c0-2.8,2.2-5,5-5h40.6c2.8,0,5,2.2,5,5v16.7
		C73.3,36.4,71.1,38.6,68.3,38.6z"/>
	<g>
		<path class="st2" d="M52.2,24H30.4c-1.7,0-3-1.4-3-3c0-1.7,1.4-3,3-3h21.8V24z M50.6,19.5H28.8"/>
	</g>
	<g>
		<path class="st24" d="M51.1,29L50,30.8c-0.5,0.9-1.7,1.2-2.6,0.7l-4.6-2.6c-0.9-0.5-1.2-1.7-0.7-2.6l1.1-1.9
			c0.5-0.9,1.7-1.2,2.6-0.7l4.6,2.6C51.3,26.9,51.6,28,51.1,29z"/>
		<path class="st24" d="M56.3,30.3v2.2c0,1.1-0.9,1.9-1.9,1.9h-5.3c-1.1,0-1.9-0.9-1.9-1.9v-2.2c0-1.1,0.9-1.9,1.9-1.9l5.3,0
			C55.5,28.4,56.3,29.3,56.3,30.3z"/>
	</g>
	<path class="st24" d="M44.8,26.3h-2.2c-1.1,0-1.9-0.9-1.9-1.9v-5.3c0-1.1,0.9-1.9,1.9-1.9h2.2c1.1,0,1.9,0.9,1.9,1.9v5.3
		C46.7,25.5,45.9,26.3,44.8,26.3z"/>
	<g>
		<g>
			<path class="st24" d="M59.5,27.4l1.1,1.9c0.5,0.9,1.7,1.2,2.6,0.7l4.6-2.6c0.9-0.5,1.2-1.7,0.7-2.6l-1.1-1.9
				c-0.5-0.9-1.7-1.2-2.6-0.7l-4.6,2.6C59.2,25.3,58.9,26.5,59.5,27.4z"/>
			<path class="st24" d="M54.2,28.8v2.2c0,1.1,0.9,1.9,1.9,1.9l5.3,0c1.1,0,1.9-0.9,1.9-1.9v-2.2c0-1.1-0.9-1.9-1.9-1.9l-5.3,0
				C55,26.8,54.2,27.7,54.2,28.8z"/>
		</g>
		<path class="st25" d="M66.5,23.7h-2.2c-1.1,0-1.9-0.9-1.9-1.9l0-2.2c0-1.1,0.9-1.9,1.9-1.9h2.2c1.1,0,1.9,0.9,1.9,1.9v2.2
			C68.5,22.8,67.6,23.7,66.5,23.7z"/>
	</g>
	<path class="st8" d="M30.4,19.5c-0.8,0-1.5,0.7-1.5,1.5s0.7,1.5,1.5,1.5h20.3v-2.9H30.4z"/>
	<path class="st24" d="M43.7,17.2L43.7,17.2c1.7,0,3,1.4,3,3v3.1c0,1.7-1.4,3-3,3h0"/>
	<g>
		<path class="st26" d="M66.5,23.7h-2.2c-1.1,0-1.9-0.9-1.9-1.9l0-2.2c0-1.1,0.9-1.9,1.9-1.9h2.2c1.1,0,1.9,0.9,1.9,1.9v2.2
			C68.5,22.8,67.6,23.7,66.5,23.7z"/>
		<g>
			<line class="st27" x1="63.9" y1="22.4" x2="67.1" y2="19"/>
			<line class="st27" x1="67.1" y1="22.3" x2="63.8" y2="19"/>
		</g>
	</g>
</g>
</svg>
