<?xml version="1.0" encoding="utf-8"?>
<!-- Generator: Adobe Illustrator 24.0.1, SVG Export Plug-In . SVG Version: 6.00 Build 0)  -->
<svg version="1.1" xmlns="http://www.w3.org/2000/svg" xmlns:xlink="http://www.w3.org/1999/xlink" x="0px" y="0px"
	 viewBox="0 0 50.8 50.8" style="enable-background:new 0 0 50.8 50.8;" xml:space="preserve">
<style type="text/css">
	.st0{fill:#FF9933;stroke:#FF9933;stroke-width:5;stroke-linecap:round;stroke-linejoin:round;stroke-miterlimit:3;}
	.st1{fill:#FF9933;stroke:#FF9933;stroke-width:6;stroke-miterlimit:10;}
	.st2{fill:#206095;}
	.st3{fill:#FF9933;stroke:#FF9933;stroke-width:5;stroke-miterlimit:10;}
	.st4{fill:#014462;}
	.st5{fill:#D0D2D3;}
	.st6{fill:#C6A55A;}
	.st7{fill:#D5B568;}
	.st8{fill:#FFFFFF;}
	.st9{opacity:0.5;fill:#C6A55A;}
	.st10{fill:#BDBFC1;}
	.st11{opacity:0.3;fill:#B4B4B4;}
	.st12{fill:#9A7A48;}
	.st13{fill:#A88251;}
	.st14{opacity:0.5;fill:#FFFFFF;}
	.st15{fill:#5F7682;}
	.st16{fill:#E2BC22;}
	.st17{fill:#FF9933;}
	.st18{opacity:0.5;fill:#E2BC22;}
	.st19{opacity:0.8;fill:#FF9933;}
	.st20{fill:#FFFBDC;}
	.st21{fill:#FF9933;stroke:#206095;stroke-width:1.0154;stroke-miterlimit:10;}
	.st22{fill:#EAEAEA;stroke:#206095;stroke-width:1.2241;stroke-miterlimit:10;}
	.st23{opacity:0.8;fill:#FFFFFF;}
	.st24{fill:none;stroke:#206095;stroke-width:1.5564;stroke-miterlimit:10;}
	.st25{fill:none;stroke:#206095;stroke-width:1.2641;stroke-miterlimit:10;}
	.st26{fill:#206095;stroke:#206095;stroke-width:1.5564;stroke-miterlimit:10;}
	.st27{fill:none;stroke:#FFFFFF;stroke-width:0.3018;stroke-miterlimit:10;}
	
		.st28{fill:none;stroke:#FF9933;stroke-width:1.5564;stroke-linecap:round;stroke-linejoin:round;stroke-dasharray:4.8647,4.8647,4.8647,4.8647,4.8647,4.8647;}
	.st29{fill:#FF9933;stroke:#206095;stroke-width:1.0596;stroke-miterlimit:10;}
	.st30{fill:#FFFFFF;stroke:#206095;stroke-miterlimit:10;}
	.st31{fill:#5F7682;stroke:#5F7682;stroke-miterlimit:10;}
	.st32{fill:#FFFFFF;stroke:#FFFFFF;stroke-miterlimit:10;}
	.st33{fill:none;stroke:#5F7682;stroke-width:1.533;stroke-miterlimit:10;}
	.st34{fill:none;stroke:#5F7682;stroke-width:1.2451;stroke-miterlimit:10;}
	.st35{fill:#5F7682;stroke:#5F7682;stroke-width:1.533;stroke-miterlimit:10;}
	.st36{fill:none;stroke:#FFFFFF;stroke-width:0.2972;stroke-miterlimit:10;}
	
		.st37{fill:none;stroke:#5F7682;stroke-width:1.533;stroke-linecap:round;stroke-linejoin:round;stroke-dasharray:4.8116,4.8116,4.8116,4.8116,4.8116,4.8116;}
	.st38{fill:#5F7682;stroke:#5F7682;stroke-width:1.0596;stroke-miterlimit:10;}
	.st39{fill:#EAEAEA;stroke:#206095;stroke-width:1.4584;stroke-miterlimit:10;}
	.st40{fill:#D0D2D3;stroke:#EAEAEA;stroke-miterlimit:10;}
	.st41{opacity:0.4;fill:#FFFFFF;stroke:#206095;stroke-miterlimit:10;}
	.st42{fill:none;stroke:#D0D2D3;stroke-miterlimit:10;}
	.st43{fill:#D0D2D3;stroke:#D0D2D3;stroke-miterlimit:10;}
	.st44{fill:none;stroke:#206095;stroke-width:1.4584;stroke-miterlimit:10;}
	.st45{fill:none;stroke:#D0D2D3;stroke-width:0.5;stroke-miterlimit:10;}
	.st46{fill:#008080;}
	.st47{fill:#206095;stroke:#206095;stroke-width:1.0154;stroke-miterlimit:10;}
	.st48{fill:#FFFFFF;stroke:#FFFFFF;stroke-width:1.0154;stroke-miterlimit:10;}
	.st49{opacity:0.8;fill:#5F7682;}
</style>
<g id="Layer_1">
</g>
<g id="Layer_2">
	<circle class="st4" cx="25.4" cy="25.4" r="25.4"/>
	<path class="st5" d="M24.8,44.3l0.8-0.8v0.8C25.3,44.3,25.1,44.3,24.8,44.3z"/>
	<path class="st6" d="M25.6,46.6c8.3,0,17.3-8.4,17.3-35c-8.4,0-15.6-2.9-17.3-5.5c-1.7,2.6-8.8,5.5-17.3,5.5
		C8.3,38.3,17.3,46.6,25.6,46.6z"/>
	<path class="st7" d="M42.8,11.7c-8.4,0-15.6-2.9-17.3-5.5v40.5C33.8,46.6,42.8,38.3,42.8,11.7z"/>
	<path class="st8" d="M40.5,13.9c-6.7-0.4-12.1-2.4-14.9-4.5v34.9C28.9,44.3,39.9,42.1,40.5,13.9z"/>
	<path class="st8" d="M26.1,9.8L11.4,24.5c-0.2-1.6-0.4-3.4-0.6-5.3l6.2-6.2c3.7-0.9,6.6-2.2,8.5-3.6C25.7,9.5,25.9,9.7,26.1,9.8z"
		/>
	<path class="st8" d="M25.5,17.5v5.8L14.2,34.7c-0.6-1.3-1.1-2.7-1.5-4.3L25.5,17.5z"/>
	<path class="st8" d="M25.5,30.5v5.8l-5.9,5.9c-1-0.7-2-1.7-2.9-2.9L25.5,30.5z"/>
	<path class="st9" d="M40.5,13.9c-0.4,20.4-6.3,27.2-10.8,29.4c-1.7,0.8-3.2,1-4.2,1c-0.2,0-0.5,0-0.8,0c-1.3-0.1-3.2-0.6-5.1-2
		c-1-0.7-2-1.7-2.9-2.9c-0.9-1.2-1.8-2.7-2.6-4.6v0c-0.6-1.3-1.1-2.7-1.5-4.3c-0.5-1.7-0.9-3.7-1.2-5.9c-0.2-1.6-0.4-3.4-0.6-5.3
		c-0.1-1.6-0.2-3.4-0.2-5.3c2.3-0.1,4.5-0.5,6.5-1c3.7-0.9,6.6-2.2,8.5-3.6c0.2,0.1,0.4,0.3,0.6,0.4C29.1,11.7,34.2,13.6,40.5,13.9z
		"/>
</g>
</svg>
