<?xml version="1.0" encoding="utf-8"?>
<!-- Generator: Adobe Illustrator 24.0.1, SVG Export Plug-In . SVG Version: 6.00 Build 0)  -->
<svg version="1.1" xmlns="http://www.w3.org/2000/svg" xmlns:xlink="http://www.w3.org/1999/xlink" x="0px" y="0px"
	 viewBox="0 0 50.8 50.8" style="enable-background:new 0 0 50.8 50.8;" xml:space="preserve">
<style type="text/css">
	.st0{fill:#FF9933;stroke:#FF9933;stroke-width:5;stroke-linecap:round;stroke-linejoin:round;stroke-miterlimit:3;}
	.st1{fill:#FF9933;stroke:#FF9933;stroke-width:6;stroke-miterlimit:10;}
	.st2{fill:#206095;}
	.st3{fill:#FF9933;stroke:#FF9933;stroke-width:5;stroke-miterlimit:10;}
	.st4{fill:#014462;}
	.st5{fill:#D0D2D3;}
	.st6{fill:#C6A55A;}
	.st7{fill:#D5B568;}
	.st8{fill:#FFFFFF;}
	.st9{opacity:0.5;fill:#C6A55A;}
	.st10{fill:#BDBFC1;}
	.st11{opacity:0.3;fill:#B4B4B4;}
	.st12{fill:#9A7A48;}
	.st13{fill:#A88251;}
	.st14{opacity:0.5;fill:#FFFFFF;}
	.st15{fill:#5F7682;}
	.st16{fill:#E2BC22;}
	.st17{fill:#FF9933;}
	.st18{opacity:0.5;fill:#E2BC22;}
	.st19{opacity:0.8;fill:#FF9933;}
	.st20{fill:#FFFBDC;}
	.st21{fill:#FF9933;stroke:#206095;stroke-width:1.0154;stroke-miterlimit:10;}
	.st22{fill:#EAEAEA;stroke:#206095;stroke-width:1.2241;stroke-miterlimit:10;}
	.st23{opacity:0.8;fill:#FFFFFF;}
	.st24{fill:none;stroke:#206095;stroke-width:1.5564;stroke-miterlimit:10;}
	.st25{fill:none;stroke:#206095;stroke-width:1.2641;stroke-miterlimit:10;}
	.st26{fill:#206095;stroke:#206095;stroke-width:1.5564;stroke-miterlimit:10;}
	.st27{fill:none;stroke:#FFFFFF;stroke-width:0.3018;stroke-miterlimit:10;}
	
		.st28{fill:none;stroke:#FF9933;stroke-width:1.5564;stroke-linecap:round;stroke-linejoin:round;stroke-dasharray:4.8647,4.8647,4.8647,4.8647,4.8647,4.8647;}
	.st29{fill:#FF9933;stroke:#206095;stroke-width:1.0596;stroke-miterlimit:10;}
	.st30{fill:#FFFFFF;stroke:#206095;stroke-miterlimit:10;}
	.st31{fill:#5F7682;stroke:#5F7682;stroke-miterlimit:10;}
	.st32{fill:#FFFFFF;stroke:#FFFFFF;stroke-miterlimit:10;}
	.st33{fill:none;stroke:#5F7682;stroke-width:1.533;stroke-miterlimit:10;}
	.st34{fill:none;stroke:#5F7682;stroke-width:1.2451;stroke-miterlimit:10;}
	.st35{fill:#5F7682;stroke:#5F7682;stroke-width:1.533;stroke-miterlimit:10;}
	.st36{fill:none;stroke:#FFFFFF;stroke-width:0.2972;stroke-miterlimit:10;}
	
		.st37{fill:none;stroke:#5F7682;stroke-width:1.533;stroke-linecap:round;stroke-linejoin:round;stroke-dasharray:4.8116,4.8116,4.8116,4.8116,4.8116,4.8116;}
	.st38{fill:#5F7682;stroke:#5F7682;stroke-width:1.0596;stroke-miterlimit:10;}
	.st39{fill:#EAEAEA;stroke:#206095;stroke-width:1.4584;stroke-miterlimit:10;}
	.st40{fill:#D0D2D3;stroke:#EAEAEA;stroke-miterlimit:10;}
	.st41{opacity:0.4;fill:#FFFFFF;stroke:#206095;stroke-miterlimit:10;}
	.st42{fill:none;stroke:#D0D2D3;stroke-miterlimit:10;}
	.st43{fill:#D0D2D3;stroke:#D0D2D3;stroke-miterlimit:10;}
	.st44{fill:none;stroke:#206095;stroke-width:1.4584;stroke-miterlimit:10;}
	.st45{fill:none;stroke:#D0D2D3;stroke-width:0.5;stroke-miterlimit:10;}
	.st46{fill:#008080;}
	.st47{fill:#206095;stroke:#206095;stroke-width:1.0154;stroke-miterlimit:10;}
	.st48{fill:#FFFFFF;stroke:#FFFFFF;stroke-width:1.0154;stroke-miterlimit:10;}
	.st49{opacity:0.8;fill:#5F7682;}
</style>
<g id="Layer_1">
</g>
<g id="Layer_2">
	<circle class="st4" cx="25.4" cy="25.4" r="25.4"/>
	<g>
		<path class="st12" d="M25.4,46.6c8.3,0,17.3-8.4,17.3-35c-8.4,0-15.6-2.9-17.3-5.5c-1.7,2.6-8.8,5.5-17.3,5.5
			C8.1,38.3,17.1,46.6,25.4,46.6z"/>
		<path class="st13" d="M42.7,11.7c-8.4,0-15.6-2.9-17.3-5.5v40.5C33.6,46.6,42.7,38.3,42.7,11.7z"/>
		<path class="st12" d="M40.3,13.9C39.9,34.3,34,41.1,29.5,43.3c-1.7,0.8-3.2,1-4.2,1c-0.2,0-0.5,0-0.8,0c-1.3-0.1-3.2-0.6-5.1-2
			c-1-0.7-2-1.7-2.9-2.9c-0.9-1.2-1.8-2.7-2.6-4.6v0c-0.6-1.3-1.1-2.7-1.5-4.3c-0.5-1.7-0.9-3.7-1.2-5.9c-0.2-1.6-0.4-3.4-0.6-5.3
			c-0.1-1.6-0.2-3.4-0.2-5.3c2.3-0.1,4.5-0.5,6.5-1c3.7-0.9,6.6-2.2,8.5-3.6c0.2,0.1,0.4,0.3,0.6,0.4C28.9,11.7,34,13.6,40.3,13.9z"
			/>
		<path class="st14" d="M26,9.8L26,9.8c-0.1,0-0.1-0.1-0.2-0.1c-0.1-0.1-0.3-0.2-0.4-0.3v0c0,0,0,0,0,0c-1.9,1.4-4.8,2.7-8.5,3.6
			l-6.2,6.2c0.1,1.9,0.3,3.6,0.6,5.3l14.1-14.1v7.2L12.6,30.4c0.4,1.6,0.9,3.1,1.5,4.3l11.3-11.3v7.2l-8.7,8.7
			c1,1.3,1.9,2.2,2.9,2.9l5.8-5.8v7.2l-0.7,0.7c0.3,0,0.5,0,0.7,0v0c0,0,0,0,0.1,0c0,0,0,0,0,0v0c3.5,0,14.3-2.5,14.8-30.4
			C34,13.6,28.9,11.7,26,9.8z"/>
		<rect x="23.9" y="42.7" class="st12" width="1.5" height="2"/>
	</g>
</g>
</svg>
