<?xml version="1.0" encoding="utf-8"?>
<!-- Generator: Adobe Illustrator 24.0.1, SVG Export Plug-In . SVG Version: 6.00 Build 0)  -->
<svg version="1.1" xmlns="http://www.w3.org/2000/svg" xmlns:xlink="http://www.w3.org/1999/xlink" x="0px" y="0px"
	 viewBox="0 0 332.5 311.7" style="enable-background:new 0 0 332.5 311.7;" xml:space="preserve">
<style type="text/css">
	.st0{fill:#FF9933;stroke:#FF9933;stroke-width:5;stroke-linecap:round;stroke-linejoin:round;stroke-miterlimit:3;}
	.st1{fill:#FF9933;stroke:#FF9933;stroke-width:6;stroke-miterlimit:10;}
	.st2{fill:#206095;}
	.st3{fill:#FF9933;stroke:#FF9933;stroke-width:5;stroke-miterlimit:10;}
	.st4{fill:#014462;}
	.st5{fill:#D0D2D3;}
	.st6{fill:#C6A55A;}
	.st7{fill:#D5B568;}
	.st8{fill:#FFFFFF;}
	.st9{opacity:0.5;fill:#C6A55A;}
	.st10{fill:#BDBFC1;}
	.st11{opacity:0.3;fill:#B4B4B4;}
	.st12{fill:#9A7A48;}
	.st13{fill:#A88251;}
	.st14{opacity:0.5;fill:#FFFFFF;}
	.st15{fill:#5F7682;}
	.st16{fill:#E2BC22;}
	.st17{fill:#FF9933;}
	.st18{opacity:0.5;fill:#E2BC22;}
	.st19{opacity:0.8;fill:#FF9933;}
	.st20{fill:#FFFBDC;}
	.st21{fill:#FF9933;stroke:#206095;stroke-width:1.0154;stroke-miterlimit:10;}
	.st22{fill:#EAEAEA;stroke:#206095;stroke-width:1.2241;stroke-miterlimit:10;}
	.st23{opacity:0.8;fill:#FFFFFF;}
	.st24{fill:none;stroke:#206095;stroke-width:1.5564;stroke-miterlimit:10;}
	.st25{fill:none;stroke:#206095;stroke-width:1.2641;stroke-miterlimit:10;}
	.st26{fill:#206095;stroke:#206095;stroke-width:1.5564;stroke-miterlimit:10;}
	.st27{fill:none;stroke:#FFFFFF;stroke-width:0.3018;stroke-miterlimit:10;}
	
		.st28{fill:none;stroke:#FF9933;stroke-width:1.5564;stroke-linecap:round;stroke-linejoin:round;stroke-dasharray:4.8647,4.8647,4.8647,4.8647,4.8647,4.8647;}
	.st29{fill:#FF9933;stroke:#206095;stroke-width:1.0596;stroke-miterlimit:10;}
	.st30{fill:#FFFFFF;stroke:#206095;stroke-miterlimit:10;}
	.st31{fill:#5F7682;stroke:#5F7682;stroke-miterlimit:10;}
	.st32{fill:#FFFFFF;stroke:#FFFFFF;stroke-miterlimit:10;}
	.st33{fill:none;stroke:#5F7682;stroke-width:1.533;stroke-miterlimit:10;}
	.st34{fill:none;stroke:#5F7682;stroke-width:1.2451;stroke-miterlimit:10;}
	.st35{fill:#5F7682;stroke:#5F7682;stroke-width:1.533;stroke-miterlimit:10;}
	.st36{fill:none;stroke:#FFFFFF;stroke-width:0.2972;stroke-miterlimit:10;}
	
		.st37{fill:none;stroke:#5F7682;stroke-width:1.533;stroke-linecap:round;stroke-linejoin:round;stroke-dasharray:4.8116,4.8116,4.8116,4.8116,4.8116,4.8116;}
	.st38{fill:#5F7682;stroke:#5F7682;stroke-width:1.0596;stroke-miterlimit:10;}
	.st39{fill:#EAEAEA;stroke:#206095;stroke-width:1.4584;stroke-miterlimit:10;}
	.st40{fill:#D0D2D3;stroke:#EAEAEA;stroke-miterlimit:10;}
	.st41{opacity:0.4;fill:#FFFFFF;stroke:#206095;stroke-miterlimit:10;}
	.st42{fill:none;stroke:#D0D2D3;stroke-miterlimit:10;}
	.st43{fill:#D0D2D3;stroke:#D0D2D3;stroke-miterlimit:10;}
	.st44{font-family:'OpenSans-Bold';}
	.st45{font-size:1.552px;}
	.st46{fill:none;stroke:#206095;stroke-width:1.4584;stroke-miterlimit:10;}
	.st47{fill:none;stroke:#D0D2D3;stroke-width:0.5;stroke-miterlimit:10;}
	.st48{fill:#008080;}
	.st49{fill:#206095;stroke:#206095;stroke-width:1.0154;stroke-miterlimit:10;}
	.st50{fill:#FFFFFF;stroke:#FFFFFF;stroke-width:1.0154;stroke-miterlimit:10;}
	.st51{opacity:0.8;fill:#5F7682;}
</style>
<g id="Layer_1">
</g>
<g id="Layer_2">
	<path class="st18" d="M68,102.7c0,13.7-22.9,43.9-22.9,43.9s-22.9-30.1-22.9-43.9s9.1-24.9,22.9-24.9S68,89,68,102.7z"/>
	<rect x="6.9" y="6.5" class="st39" width="318.7" height="298.7"/>
	<path class="st40" d="M213.3,303.2H94V83.6c0-2.8,2.3-5,5-5h109.3c2.8,0,5,2.3,5,5V303.2z"/>
	<g>
		<path class="st40" d="M144.6,180.6h-28.4c-2.8,0-5-2.3-5-5V99c0-2.8,2.3-5,5-5h28.4c2.8,0,5,2.3,5,5v76.5
			C149.6,178.3,147.3,180.6,144.6,180.6z"/>
		<path class="st40" d="M191.2,180.6h-28.4c-2.8,0-5-2.3-5-5V99c0-2.8,2.3-5,5-5h28.4c2.8,0,5,2.3,5,5v76.5
			C196.2,178.3,193.9,180.6,191.2,180.6z"/>
		<path class="st40" d="M144.6,291.2h-28.4c-2.8,0-5-2.3-5-5v-76.5c0-2.8,2.3-5,5-5h28.4c2.8,0,5,2.3,5,5v76.5
			C149.6,289,147.3,291.2,144.6,291.2z"/>
		<path class="st40" d="M191.2,291.2h-28.4c-2.8,0-5-2.3-5-5v-76.5c0-2.8,2.3-5,5-5h28.4c2.8,0,5,2.3,5,5v76.5
			C196.2,289,193.9,291.2,191.2,291.2z"/>
	</g>
	<path class="st41" d="M325.6,257.5h-80.3v-142c0-2.8,2.3-5,5-5h75.2V257.5z"/>
	<path class="st42" d="M325.6,257.5h-80.3v-142c0-2.8,2.2-5,5-5h75.3V257.5z"/>
	<line class="st43" x1="309.5" y1="110.9" x2="309.5" y2="257.2"/>
	<path class="st40" d="M176.9,197.7h-44c-1.7,0-3-1.3-3-3v-4.1c0-1.7,1.3-3,3-3h44c1.7,0,3,1.3,3,3v4.1
		C179.9,196.3,178.5,197.7,176.9,197.7z"/>
	<g>
		<text transform="matrix(1.0079 0 0 1 44.1747 121.2792)" class="st8 st44 st45">F</text>
	</g>
	<line class="st43" x1="245.3" y1="184" x2="325.6" y2="184"/>
	<path class="st5" d="M245.3,122.7v-7.3c0-2.8,2.2-5,5-5h75v12.3H245.3z"/>
	<rect x="6.9" y="6.5" class="st46" width="318.7" height="298.7"/>
	<g>
		<line class="st47" x1="249.8" y1="118.5" x2="249.8" y2="171.5"/>
		<rect x="248.5" y="170.5" class="st43" width="2.7" height="4.1"/>
	</g>
</g>
</svg>
